<?xml version="1.0" standalone="no"?>
<!DOCTYPE svg PUBLIC "-//W3C//DTD SVG 20010904//EN"
 "http://www.w3.org/TR/2001/REC-SVG-20010904/DTD/svg10.dtd">
<svg version="1.0" xmlns="http://www.w3.org/2000/svg"
 width="1000.000000pt" height="1000.000000pt" viewBox="0 0 1000.000000 1000.000000"
 preserveAspectRatio="xMidYMid meet">
<metadata>
Created by potrace 1.14, written by Peter Selinger 2001-2017
</metadata>
<g transform="translate(0.000000,1000.000000) scale(0.100000,-0.100000)"
fill="#000000" stroke="none">
<path d="M4283 9513 c-4 -10 -9 -20 -12 -23 -13 -10 -31 -62 -26 -71 4 -5 1
-9 -6 -9 -6 0 -9 -8 -6 -20 3 -13 1 -18 -6 -13 -6 4 -8 0 -4 -9 3 -9 1 -20 -5
-26 -5 -5 -11 -33 -13 -61 -1 -29 -6 -55 -9 -58 -3 -3 0 -13 7 -21 8 -11 9
-14 0 -9 -9 6 -11 -7 -8 -45 2 -29 4 -53 5 -53 1 0 3 -8 5 -17 2 -10 -2 -18
-8 -18 -8 0 -7 -3 1 -9 8 -4 13 -11 13 -15 -1 -3 -1 -7 0 -8 3 -10 10 -46 11
-60 1 -10 5 -18 9 -18 4 0 5 -9 2 -20 -3 -11 0 -20 6 -20 6 0 11 -9 11 -19 0
-11 5 -23 10 -26 6 -3 10 -15 10 -25 0 -10 6 -21 13 -23 8 -4 7 -6 -3 -7 -10
0 -6 -6 10 -15 14 -8 19 -14 11 -15 -10 0 -7 -6 7 -19 12 -10 22 -23 22 -28 0
-6 7 -16 15 -23 8 -7 12 -17 8 -23 -3 -6 -1 -7 5 -3 7 4 12 3 12 -2 0 -14 87
-102 94 -95 3 3 6 -1 6 -11 0 -9 4 -15 8 -12 5 3 15 -4 22 -15 8 -10 19 -19
25 -19 6 0 16 -9 23 -20 6 -11 18 -17 26 -14 8 3 20 -3 27 -14 8 -11 16 -19
19 -19 20 0 49 -16 44 -25 -4 -6 -2 -8 4 -4 6 3 18 -2 28 -11 10 -10 19 -17
21 -15 8 6 24 1 19 -6 -2 -4 5 -9 16 -9 12 -1 24 -6 27 -11 3 -5 21 -15 39
-23 17 -8 32 -17 32 -21 0 -5 7 -8 15 -8 8 0 15 -4 15 -10 0 -5 12 -10 26 -10
14 0 23 -4 19 -10 -3 -5 1 -10 10 -10 9 0 13 -4 10 -10 -3 -5 0 -7 8 -5 7 3
24 -3 36 -14 13 -12 28 -18 32 -15 5 3 9 0 9 -5 0 -6 7 -11 16 -11 8 0 13 -4
10 -8 -2 -4 5 -9 17 -9 12 -1 23 -7 25 -13 2 -5 10 -10 18 -10 8 0 14 -5 14
-12 0 -6 3 -8 7 -5 3 4 12 -1 20 -11 8 -9 11 -11 8 -4 -6 12 -3 12 16 2 12 -7
32 -21 43 -31 11 -11 26 -19 33 -19 7 0 13 -5 13 -11 0 -5 4 -8 9 -4 5 3 16
-1 23 -9 8 -7 23 -16 35 -20 12 -4 27 -13 33 -21 7 -8 21 -15 31 -15 10 0 22
-7 27 -16 5 -9 11 -15 13 -14 6 2 43 -13 49 -20 10 -12 83 -51 87 -46 3 3 15
-5 27 -17 11 -12 30 -24 41 -25 11 -2 22 -7 25 -11 10 -13 60 -41 60 -34 0 5
4 3 8 -3 4 -5 24 -18 44 -27 20 -10 40 -22 43 -27 4 -6 10 -8 15 -5 4 3 11 -2
14 -11 3 -8 10 -12 16 -9 5 3 10 1 10 -4 0 -6 7 -11 15 -11 8 0 15 -5 15 -11
0 -5 5 -7 10 -4 6 3 13 -1 16 -10 6 -13 8 -14 15 -3 7 10 9 9 9 -5 0 -9 3 -17
8 -16 17 3 51 -14 56 -28 3 -8 10 -12 15 -9 5 3 14 -9 21 -27 6 -17 16 -40 22
-51 6 -12 6 -16 0 -12 -7 4 -9 -12 -7 -41 2 -27 4 -48 5 -48 3 0 7 -82 11
-207 2 -60 8 -108 13 -108 5 0 3 -6 -3 -13 -6 -8 -8 -17 -4 -21 6 -5 10 -80
16 -298 1 -32 4 -58 7 -58 3 0 6 -9 6 -20 0 -11 -3 -20 -7 -20 -9 0 -6 -20 4
-37 4 -6 3 -15 -3 -18 -7 -4 -7 -11 -2 -18 9 -13 14 -69 15 -174 1 -37 5 -63
11 -63 7 0 8 -3 1 -8 -14 -10 -15 -52 -1 -52 6 0 4 -5 -4 -10 -8 -5 -10 -10
-5 -10 6 0 11 -23 12 -52 2 -129 7 -244 11 -251 2 -5 6 -68 8 -140 4 -142 8
-190 20 -208 4 -8 3 -9 -4 -5 -8 4 -10 2 -6 -7 3 -8 15 -19 27 -24 25 -12 97
-9 106 3 3 5 15 9 26 8 11 0 25 4 32 9 7 5 17 6 23 2 5 -3 10 -1 10 4 0 6 3
10 8 10 22 -4 42 2 37 11 -3 6 2 10 12 10 10 0 28 7 39 15 12 8 24 11 28 8 3
-3 6 -1 6 5 0 7 7 12 15 12 9 0 18 7 22 16 3 8 11 13 17 11 13 -4 47 29 38 38
-4 3 2 3 12 -1 11 -4 17 -3 14 2 -5 8 26 45 34 40 2 -2 17 11 33 27 17 17 23
27 15 23 -8 -4 -6 0 4 8 11 9 25 16 30 16 6 0 4 5 -4 10 -13 8 -12 10 3 10 10
0 15 5 12 10 -3 6 -1 10 5 10 6 0 8 5 5 10 -3 6 1 13 9 16 9 3 16 12 16 20 0
7 8 18 18 23 13 8 14 11 2 11 -12 0 -11 3 3 11 9 5 17 19 17 29 0 11 5 20 11
20 6 0 9 7 5 15 -3 8 0 15 5 15 6 0 9 9 6 20 -3 13 2 25 15 34 12 9 15 16 9
21 -6 3 -11 11 -11 16 0 6 5 7 10 4 8 -5 15 47 8 58 -1 1 4 12 10 24 8 14 9
24 2 28 -6 4 -7 12 -3 18 11 18 11 177 0 177 -6 0 -6 5 0 13 11 14 11 47 0 65
-5 7 -3 12 5 12 8 0 9 3 3 8 -10 6 -15 82 -19 264 0 32 -3 58 -6 58 -3 0 -6
39 -6 88 -2 123 -10 238 -18 251 -4 6 -2 11 4 11 6 0 8 5 4 12 -12 19 -12 48
0 48 7 0 8 3 1 8 -6 4 -11 30 -13 57 -1 28 -4 97 -7 155 -2 58 -7 139 -11 180
-3 41 -6 109 -7 150 -1 41 -6 81 -11 89 -7 10 -6 12 3 6 10 -6 11 -3 2 14 -7
12 -9 26 -6 31 3 5 1 11 -5 15 -6 4 -7 11 -4 17 4 7 2 8 -4 4 -7 -4 -12 -1
-12 9 0 9 -4 14 -9 11 -5 -3 -11 1 -15 9 -3 8 -13 15 -21 15 -10 0 -13 5 -9
12 4 6 3 8 -4 4 -6 -3 -16 0 -24 7 -7 8 -19 12 -26 9 -6 -2 -12 1 -12 8 0 6
-4 8 -10 5 -5 -3 -10 -3 -10 2 0 4 -12 17 -27 27 -14 11 -23 14 -18 7 6 -10 3
-11 -14 -2 -11 7 -21 16 -21 20 0 5 -7 12 -16 15 -10 4 -13 2 -9 -7 4 -6 -2
-2 -13 10 -11 12 -22 19 -26 16 -3 -3 -9 2 -12 11 -5 14 -9 15 -15 4 -7 -10
-9 -10 -9 0 0 6 -7 12 -16 12 -8 0 -12 4 -9 10 3 6 -1 7 -9 4 -9 -4 -18 1 -22
10 -3 9 -15 16 -25 16 -10 0 -19 5 -19 10 0 6 -7 10 -15 10 -8 0 -15 5 -15 11
0 5 -4 8 -10 4 -5 -3 -18 2 -28 12 -10 10 -25 19 -33 21 -8 2 -18 10 -22 18
-5 8 -13 11 -19 8 -6 -4 -13 -2 -17 4 -3 6 -13 12 -21 14 -8 2 -23 11 -32 21
-9 11 -22 16 -27 12 -6 -3 -11 -1 -11 5 0 7 -7 9 -16 6 -8 -3 -12 -2 -9 4 3 5
-6 12 -20 16 -14 3 -25 10 -25 15 0 5 -7 9 -15 9 -8 0 -15 5 -15 10 0 6 -6 9
-12 8 -7 -2 -11 4 -10 12 2 8 0 12 -4 8 -4 -4 -14 -2 -22 5 -13 10 -14 9 -7
-2 5 -10 -2 -8 -23 4 -17 10 -28 23 -25 29 4 5 -1 7 -10 3 -10 -4 -22 1 -29
11 -7 10 -20 17 -28 17 -8 0 -24 8 -34 17 -11 10 -26 18 -33 18 -7 0 -13 5
-13 11 0 5 -4 7 -10 4 -5 -3 -10 -1 -10 5 0 6 -4 8 -10 5 -5 -3 -10 -1 -10 4
0 6 -10 11 -22 11 -19 0 -20 2 -8 10 12 8 11 10 -7 10 -12 0 -28 7 -37 15 -8
9 -19 16 -23 17 -19 2 -39 14 -56 33 -10 11 -16 14 -12 8 3 -7 1 -13 -4 -13
-6 0 -11 5 -11 10 0 6 -7 10 -15 10 -9 0 -18 7 -21 15 -4 8 -9 13 -14 10 -4
-2 -22 7 -40 20 -18 13 -37 22 -41 19 -5 -3 -9 0 -9 5 0 6 -7 11 -15 11 -9 0
-18 7 -21 15 -4 8 -10 13 -14 10 -4 -3 -19 4 -33 15 -14 11 -29 20 -33 20 -4
0 -16 8 -27 18 -15 12 -18 13 -12 2 4 -8 -3 -4 -18 9 -14 12 -30 20 -35 17 -6
-3 -13 1 -16 10 -3 8 -10 12 -16 9 -5 -3 -10 -2 -10 3 0 6 -11 13 -25 16 -14
4 -25 13 -25 22 0 8 -4 12 -10 9 -5 -3 -10 -2 -10 4 0 6 -6 8 -14 5 -8 -3 -24
4 -35 15 -12 12 -28 21 -36 21 -8 0 -15 5 -15 11 0 5 -4 8 -9 5 -5 -3 -14 1
-21 9 -7 8 -19 15 -26 15 -8 0 -14 5 -14 11 0 6 -6 9 -14 6 -8 -3 -17 1 -20 9
-3 8 -15 14 -26 14 -12 0 -18 5 -15 10 3 6 0 10 -9 10 -8 0 -17 6 -19 13 -4
10 -6 10 -6 0 -1 -8 -9 -5 -21 7 -11 11 -27 20 -35 20 -8 0 -15 4 -15 9 0 5
-11 12 -25 15 -14 4 -25 11 -25 17 0 6 -4 7 -10 4 -5 -3 -10 -1 -10 5 0 6 -4
8 -10 5 -5 -3 -10 -1 -10 5 0 6 -4 8 -10 5 -5 -3 -10 -1 -10 4 0 6 -7 11 -15
11 -8 0 -15 5 -15 10 0 6 -11 10 -25 10 -16 0 -25 6 -25 16 0 8 -4 13 -9 10
-5 -3 -14 1 -21 10 -7 8 -19 13 -27 10 -8 -3 -16 1 -19 9 -4 8 -13 15 -20 15
-8 0 -17 6 -20 14 -3 8 -14 13 -25 11 -11 -2 -19 2 -19 10 0 12 -28 28 -52 30
-3 0 -9 3 -13 7 -4 3 -18 4 -32 2 -15 -3 -22 -1 -18 6 3 5 4 10 0 10 -3 0 -9
-8 -12 -17z"/>
<path d="M3165 8930 c-2 -4 -14 -6 -27 -5 -13 1 -27 -1 -33 -5 -5 -5 -25 -10
-43 -13 -18 -3 -44 -13 -58 -21 -18 -12 -24 -13 -24 -4 0 10 -3 10 -9 -1 -5
-8 -14 -10 -21 -6 -9 5 -11 4 -6 -3 4 -8 -3 -16 -18 -22 -14 -5 -26 -14 -26
-20 0 -5 -6 -10 -14 -10 -8 0 -22 -7 -30 -16 -9 -8 -20 -12 -26 -9 -6 4 -9 3
-8 -2 3 -9 -24 -50 -34 -52 -5 0 -13 -1 -18 -1 -6 0 -9 -3 -8 -7 4 -13 -29
-68 -39 -65 -4 1 -8 -4 -8 -10 0 -7 -8 -19 -18 -26 -9 -7 -15 -18 -12 -23 4
-5 2 -9 -3 -9 -11 0 -25 -38 -22 -59 1 -7 -3 -10 -9 -6 -6 3 -11 3 -12 -2 0
-8 -6 -38 -11 -65 -2 -7 -6 -15 -10 -18 -4 -3 -9 -25 -12 -49 -2 -23 -7 -45
-10 -48 -2 -3 -1 -16 4 -29 5 -13 6 -25 2 -28 -9 -5 -8 -64 1 -86 4 -8 8 -28
11 -45 2 -16 5 -30 6 -30 1 0 4 -13 6 -30 3 -16 9 -32 13 -35 13 -9 40 -87 33
-95 -4 -4 -2 -5 3 -3 6 2 11 0 12 -5 3 -9 18 -27 55 -67 16 -18 22 -31 15 -34
-7 -2 -2 -5 11 -5 20 -1 27 -11 23 -34 -1 -5 3 -6 9 -2 5 3 10 1 10 -4 0 -6 5
-11 11 -11 16 0 39 -26 31 -35 -4 -5 -2 -5 4 -2 13 7 67 -27 57 -37 -4 -4 1
-4 11 0 11 4 28 -1 47 -15 16 -12 33 -19 38 -16 5 3 11 0 13 -5 2 -6 13 -12
26 -13 12 0 22 -5 22 -9 0 -4 9 -5 20 -3 11 2 20 1 20 -3 0 -7 36 -11 120 -13
19 -1 55 2 80 6 25 4 54 9 65 10 11 2 21 4 23 5 1 2 7 4 12 5 6 1 11 3 13 5 1
1 9 3 17 5 8 2 23 6 33 10 11 5 17 2 17 -6 0 -11 3 -11 10 1 6 10 10 11 10 3
0 -7 11 -13 25 -13 14 0 25 -4 25 -10 0 -5 9 -10 21 -10 11 0 17 -4 14 -10 -3
-5 3 -10 14 -10 12 0 21 -4 21 -10 0 -5 7 -10 16 -10 9 0 23 -8 31 -17 10 -12
12 -13 8 -3 -4 10 -2 9 8 -2 8 -10 20 -18 27 -18 7 0 28 -11 45 -25 18 -13 35
-21 39 -18 3 4 6 1 6 -5 0 -7 7 -12 16 -12 8 0 13 -4 10 -9 -3 -5 2 -8 12 -7
9 0 16 -4 15 -11 -2 -7 4 -10 12 -7 8 4 15 1 15 -5 0 -6 6 -8 14 -5 7 3 16 -2
20 -11 3 -9 10 -13 16 -10 5 3 10 1 10 -5 0 -6 4 -9 9 -5 6 3 14 -2 19 -11 5
-9 11 -15 13 -14 9 4 59 -24 59 -32 0 -5 5 -6 10 -3 6 3 10 1 10 -5 0 -7 6
-10 13 -7 8 3 20 -3 28 -14 7 -10 21 -19 29 -19 9 0 26 -9 38 -20 12 -12 22
-17 22 -13 0 4 5 0 11 -9 5 -10 16 -15 24 -12 8 4 15 1 15 -7 0 -7 3 -9 6 -6
4 4 15 -3 25 -15 13 -14 19 -17 19 -7 1 10 4 9 11 -4 6 -9 14 -15 20 -12 5 4
9 1 9 -4 0 -6 7 -11 15 -11 8 0 15 -5 15 -11 0 -5 5 -7 10 -4 6 3 10 1 10 -5
0 -6 5 -8 10 -5 6 3 10 -1 10 -10 0 -9 4 -14 9 -10 10 5 83 -33 89 -47 2 -5 8
-6 13 -2 5 3 9 -3 9 -13 0 -14 2 -15 9 -4 7 11 12 10 27 -8 10 -11 29 -21 42
-21 13 0 20 -4 17 -10 -5 -9 15 -15 38 -11 4 0 7 -3 7 -9 0 -5 9 -10 20 -10
11 0 20 -5 20 -11 0 -6 9 -9 20 -6 11 3 20 1 20 -5 0 -6 6 -8 14 -5 7 3 18 1
23 -4 5 -5 33 -11 61 -12 29 -1 52 -4 52 -7 0 -3 16 -6 35 -7 24 -1 33 2 29 9
-5 7 -2 8 7 2 19 -12 32 -12 47 -1 8 6 12 5 12 -3 0 -10 3 -10 14 -1 8 6 18
11 22 10 26 -4 45 2 38 14 -5 9 -4 9 6 0 13 -12 43 -7 35 7 -2 4 7 6 20 4 14
-1 27 2 31 7 3 5 10 7 15 4 5 -4 9 -1 9 5 0 6 5 8 10 5 6 -3 10 -1 10 6 0 6 8
9 20 6 13 -3 18 -1 13 6 -4 7 0 8 11 4 9 -4 15 -3 11 2 -3 5 8 15 24 22 16 7
27 17 25 21 -3 4 1 5 9 2 8 -3 17 2 20 10 4 9 11 16 17 16 6 0 25 15 42 33 17
17 27 26 23 18 -5 -9 -4 -12 3 -7 7 4 12 13 12 20 0 6 13 23 30 36 16 14 29
29 30 34 0 5 8 15 18 23 9 8 11 11 3 7 -10 -5 -12 -3 -6 7 14 22 13 49 -2 49
-8 0 -12 4 -9 8 3 5 -10 15 -29 22 -19 8 -35 17 -35 22 0 4 -6 8 -13 8 -7 0
-23 9 -36 21 -12 11 -29 18 -37 15 -7 -3 -14 -1 -14 5 0 6 -5 7 -12 3 -8 -5
-9 -2 -5 10 4 9 3 14 -2 11 -5 -3 -12 -1 -16 5 -3 5 -15 10 -26 10 -11 0 -17
5 -14 10 3 6 -3 10 -14 10 -11 0 -27 10 -35 22 -9 12 -16 17 -16 10 0 -10 -4
-9 -16 2 -8 9 -19 14 -23 12 -4 -3 -14 4 -21 15 -8 10 -22 19 -32 19 -9 0 -20
5 -24 12 -5 7 -2 8 7 3 8 -5 11 -4 6 1 -5 5 -14 9 -20 10 -26 2 -57 17 -57 26
0 5 -4 6 -10 3 -5 -3 -10 -1 -10 5 0 6 -4 8 -10 5 -5 -3 -10 -1 -10 5 0 6 -4
8 -10 5 -5 -3 -10 1 -10 9 0 9 -9 16 -20 16 -11 0 -20 5 -20 11 0 5 -4 7 -10
4 -5 -3 -10 -1 -10 5 0 6 -4 9 -9 6 -8 -6 -59 28 -73 49 -5 6 -8 5 -8 -3 0 -7
-5 -10 -10 -7 -6 4 -7 11 -4 17 5 8 1 9 -10 5 -10 -4 -19 -1 -22 7 -3 8 -14
12 -27 9 -18 -4 -19 -3 -7 6 13 10 13 11 0 12 -8 1 -18 1 -22 0 -5 0 -8 3 -8
8 0 5 -18 16 -40 25 -22 9 -40 21 -40 27 0 5 -4 8 -9 4 -5 -3 -16 1 -24 9 -8
8 -17 12 -21 9 -3 -4 -6 -1 -6 5 0 11 -28 24 -43 19 -5 -1 -13 6 -18 16 -6 9
-17 17 -24 17 -8 0 -15 5 -15 11 0 5 -4 8 -9 4 -5 -3 -15 1 -23 8 -28 26 -69
48 -80 41 -7 -4 -8 -3 -4 4 6 11 2 13 -19 12 -3 -1 -13 6 -21 15 -9 8 -19 13
-24 10 -4 -3 -11 2 -14 11 -4 9 -9 14 -12 11 -9 -8 -33 16 -26 27 3 5 0 6 -6
2 -13 -8 -63 14 -56 25 3 5 -2 6 -10 3 -9 -3 -16 -2 -16 4 0 5 -11 13 -25 16
-14 4 -23 11 -20 16 3 6 -1 7 -9 4 -9 -3 -16 -1 -16 6 0 6 -4 8 -10 5 -5 -3
-10 -1 -10 5 0 7 -7 9 -16 6 -8 -3 -12 -2 -9 4 3 6 -1 10 -10 10 -10 0 -13 5
-9 13 4 6 4 9 -1 5 -4 -4 -22 1 -40 12 -18 11 -35 17 -38 13 -4 -3 -7 -1 -7 6
0 7 -5 9 -10 6 -6 -4 -9 -2 -8 3 2 6 0 10 -5 11 -19 2 -58 54 -60 81 -1 16 -5
30 -8 30 -3 0 -6 6 -7 13 -5 44 -15 75 -33 109 -5 10 -9 23 -9 29 0 7 -8 18
-17 26 -12 10 -13 12 -3 8 10 -4 9 -2 -2 8 -10 8 -15 17 -11 20 3 4 1 7 -6 7
-8 0 -11 6 -7 16 3 8 2 13 -3 10 -13 -8 -34 21 -28 38 4 10 1 13 -9 9 -9 -3
-14 1 -14 12 0 9 -4 13 -10 10 -5 -3 -10 1 -10 9 0 9 -7 16 -16 16 -8 0 -12 5
-9 10 3 6 -3 10 -15 10 -12 0 -18 5 -15 10 3 6 1 10 -5 10 -6 0 -8 5 -4 12 4
6 3 8 -3 5 -6 -4 -21 3 -34 14 -13 11 -40 27 -59 35 -19 8 -37 19 -40 24 -3 6
-18 11 -33 12 -15 1 -27 6 -27 11 0 4 -4 5 -10 2 -5 -3 -10 -2 -10 4 0 6 -7 8
-15 5 -9 -4 -15 0 -15 7 0 11 -3 11 -10 -1 -8 -11 -12 -12 -18 -3 -8 13 -180
24 -187 13z"/>
<path d="M2947 7719 c7 -7 15 -10 18 -7 3 3 -2 9 -12 12 -14 6 -15 5 -6 -5z"/>
<path d="M8181 7378 c-14 -5 -30 -7 -37 -4 -7 3 -15 -3 -19 -12 -5 -13 -8 -14
-14 -3 -6 9 -11 10 -15 2 -4 -6 -12 -9 -17 -6 -5 4 -9 1 -9 -5 0 -7 -7 -10
-15 -6 -8 3 -15 1 -15 -4 0 -6 -7 -10 -15 -10 -8 0 -15 -5 -15 -11 0 -6 -6 -9
-12 -7 -7 3 -19 -2 -27 -9 -7 -8 -21 -11 -29 -8 -9 3 -13 3 -10 -1 8 -7 -16
-34 -30 -34 -5 0 -34 -23 -63 -52 -30 -28 -45 -45 -34 -37 18 13 19 13 7 -3
-8 -10 -22 -20 -31 -23 -10 -3 -24 -21 -31 -40 -8 -19 -17 -35 -22 -35 -4 0
-8 -7 -8 -15 0 -8 -5 -15 -12 -15 -6 0 -9 -3 -5 -6 3 -4 0 -19 -9 -35 -8 -16
-15 -31 -15 -34 0 -2 -5 -19 -11 -37 -10 -35 -14 -53 -22 -106 -3 -18 -8 -37
-11 -42 -3 -6 -1 -10 6 -10 8 0 8 -4 -1 -15 -7 -8 -8 -15 -3 -15 4 0 8 -19 7
-42 0 -24 5 -53 13 -65 7 -13 9 -23 4 -23 -6 0 -2 -20 9 -46 12 -27 15 -42 7
-38 -9 6 -8 3 1 -8 9 -12 10 -18 2 -23 -8 -5 -8 -11 1 -21 7 -9 8 -14 1 -14
-6 0 -9 -9 -7 -20 2 -11 0 -18 -6 -15 -8 5 -35 -47 -27 -52 2 -1 -6 -8 -16
-16 -11 -8 -16 -19 -12 -26 4 -6 0 -14 -8 -17 -9 -3 -16 -11 -16 -16 0 -6 -8
-17 -17 -25 -10 -8 -12 -12 -5 -8 18 9 15 -2 -8 -25 -12 -12 -18 -25 -15 -30
4 -6 -1 -10 -9 -10 -9 0 -16 -5 -16 -11 0 -5 6 -7 13 -4 6 4 3 -1 -7 -9 -11
-9 -16 -16 -12 -16 4 0 0 -7 -8 -16 -9 -8 -16 -22 -16 -30 0 -8 -5 -14 -11
-14 -6 0 -8 -7 -5 -16 3 -8 2 -12 -4 -9 -5 3 -12 -6 -16 -20 -3 -14 -10 -25
-15 -25 -5 0 -9 -7 -9 -15 0 -8 -5 -15 -11 -15 -5 0 -8 -4 -4 -9 3 -5 -1 -16
-9 -24 -8 -8 -12 -17 -9 -21 4 -3 1 -6 -5 -6 -7 0 -12 -5 -12 -11 0 -6 -9 -24
-21 -40 -11 -16 -17 -29 -13 -29 4 0 0 -6 -11 -13 -10 -8 -15 -19 -11 -25 4
-7 3 -12 -2 -12 -5 0 -15 -12 -22 -27 -8 -16 -22 -40 -32 -55 -10 -14 -18 -33
-18 -42 0 -8 -7 -19 -16 -24 -9 -5 -17 -13 -17 -18 -1 -5 -5 -8 -10 -6 -4 1
-6 -1 -5 -5 3 -11 -20 -73 -27 -73 -3 0 -3 5 1 12 4 7 3 8 -5 4 -6 -4 -9 -12
-5 -17 3 -6 -4 -21 -16 -34 -12 -13 -19 -28 -15 -34 3 -6 1 -11 -5 -11 -6 0
-8 -4 -5 -10 3 -5 1 -10 -4 -10 -6 0 -11 -7 -11 -15 0 -9 -7 -18 -15 -21 -8
-4 -13 -10 -10 -14 3 -5 1 -11 -5 -15 -6 -4 -8 -10 -5 -15 3 -4 -2 -10 -10
-13 -8 -4 -12 -15 -10 -27 2 -11 0 -18 -5 -15 -9 6 -30 -47 -30 -76 0 -11 -5
-19 -11 -19 -5 0 -8 -4 -4 -9 3 -5 1 -12 -3 -15 -5 -3 -8 -17 -7 -31 2 -14 0
-25 -4 -25 -4 0 -7 -10 -6 -22 1 -13 -2 -31 -7 -42 -7 -14 -7 -16 2 -11 9 6 9
3 1 -12 -7 -14 -7 -24 2 -33 9 -10 9 -11 -2 -5 -10 6 -11 2 -5 -16 4 -13 8
-37 9 -54 1 -16 6 -46 10 -65 5 -19 10 -38 11 -42 1 -5 3 -10 4 -13 1 -3 3 -8
4 -12 1 -5 6 -22 10 -40 4 -17 14 -37 22 -43 7 -7 11 -16 8 -21 -3 -5 0 -9 5
-9 6 0 11 -5 11 -11 0 -5 -6 -7 -12 -4 -7 4 -3 -2 9 -13 12 -11 23 -26 25 -33
2 -8 17 -27 33 -43 17 -16 21 -23 10 -16 -11 7 -8 1 8 -13 15 -14 27 -29 27
-32 0 -8 47 -55 55 -55 4 0 18 -14 32 -30 14 -17 28 -29 30 -26 3 3 16 1 29
-4 17 -7 24 -6 24 2 0 6 3 9 6 5 8 -7 34 17 34 32 0 6 5 11 12 11 6 0 8 3 5 7
-4 3 0 14 9 24 8 9 17 23 18 31 6 30 19 47 30 41 6 -3 8 -3 4 2 -4 4 -3 14 3
22 6 7 8 13 3 13 -5 0 -4 4 1 8 18 12 48 65 34 57 -8 -3 -6 0 4 8 9 8 17 19
17 26 0 6 5 11 10 11 6 0 10 7 10 15 0 8 4 15 8 15 4 0 9 10 9 22 1 13 7 24
13 26 11 4 29 40 26 54 0 4 8 13 18 21 11 8 16 19 12 25 -4 7 -1 12 9 12 9 0
13 5 10 10 -3 6 -1 10 5 10 6 0 9 4 6 9 -3 5 3 20 14 34 11 14 20 30 20 36 0
6 5 11 12 11 6 0 8 3 5 7 -4 3 1 12 11 20 11 10 12 12 2 8 -13 -6 -13 -5 0 7
8 7 16 20 18 27 2 8 10 20 19 26 9 7 13 17 10 22 -4 6 0 14 9 17 9 3 14 13 11
20 -3 8 1 17 9 20 9 3 13 10 10 15 -3 5 1 12 10 15 9 4 14 9 11 13 -4 3 2 17
13 31 11 13 17 28 14 33 -3 5 2 9 10 9 9 0 13 6 10 14 -3 7 3 22 13 31 10 10
19 22 19 27 1 4 2 13 3 19 0 5 6 7 12 3 7 -4 10 -1 7 7 -3 8 0 19 6 26 34 39
36 41 23 47 -7 3 -3 7 10 11 13 4 20 12 16 21 -3 8 0 14 7 14 6 0 8 5 5 10 -3
6 -1 10 4 10 6 0 11 7 11 15 0 9 7 18 15 21 8 4 15 10 15 16 0 5 -6 6 -12 3
-7 -4 -2 3 11 14 13 12 20 21 17 21 -4 0 -2 9 4 20 7 12 16 18 23 13 8 -5 8
-2 -1 9 -7 9 -9 18 -5 20 5 1 20 18 33 37 13 20 18 31 9 27 -7 -4 -6 -1 4 7 9
8 17 19 17 26 0 6 5 11 11 11 5 0 7 5 4 10 -3 6 -1 10 6 10 7 0 10 3 6 6 -3 4
1 13 9 21 8 8 12 18 9 23 -3 4 2 10 10 14 8 3 15 13 15 21 0 9 4 13 10 10 6
-3 7 1 4 9 -4 10 -1 16 7 16 7 0 9 3 6 6 -4 4 2 19 13 34 11 16 20 33 20 39 0
6 5 11 10 11 6 0 10 5 10 11 0 12 37 48 52 50 12 2 28 6 31 9 3 2 38 10 67 14
13 2 26 8 28 15 2 6 8 9 13 6 4 -3 26 3 47 14 22 11 42 17 46 14 3 -4 6 -2 6
3 0 5 16 18 35 28 19 11 35 22 35 26 0 4 9 10 21 13 13 4 18 10 13 18 -4 8 -3
10 4 5 7 -4 12 -2 12 4 0 6 4 9 9 6 10 -7 73 68 65 77 -3 3 4 8 15 12 12 3 19
11 16 16 -4 5 -2 9 4 9 6 0 7 7 4 17 -4 10 -2 14 4 10 9 -6 30 25 31 47 0 5 5
12 12 16 6 4 12 17 13 28 1 12 5 22 10 22 4 0 5 5 2 10 -3 6 -2 10 4 10 6 0 8
6 5 14 -3 8 -1 16 3 19 5 3 8 20 7 36 -1 17 2 31 6 31 5 0 7 9 5 20 -2 11 1
22 6 25 5 4 6 12 2 18 -13 21 -13 47 0 47 7 0 8 3 2 8 -10 7 -12 16 -17 80 -1
17 -6 32 -10 32 -5 0 -8 6 -7 13 3 26 -1 46 -13 59 -12 12 -18 31 -21 71 -1 9
-7 17 -13 17 -11 0 -28 36 -25 53 1 5 -3 5 -9 2 -7 -4 -14 2 -17 14 -3 12 -9
21 -14 21 -5 0 -9 7 -9 15 0 8 -6 15 -14 15 -8 0 -18 9 -21 20 -3 11 -11 20
-17 20 -6 0 -21 11 -33 24 -13 14 -26 22 -29 19 -3 -4 -6 -1 -6 5 0 7 -7 12
-16 12 -8 0 -12 5 -9 10 3 6 -3 10 -14 10 -11 0 -26 7 -34 15 -8 8 -17 11 -21
8 -3 -4 -6 -1 -6 5 0 7 -12 12 -26 12 -14 0 -23 4 -19 10 4 6 -7 10 -25 10
-17 0 -29 4 -26 9 4 5 -5 8 -19 6 -14 -1 -25 1 -25 4 0 4 -13 6 -30 5 -16 -1
-30 2 -30 6 0 10 -111 7 -127 -3 -6 -4 -13 -3 -15 2 -2 5 -13 5 -27 -1z m-900
-2925 c13 -16 12 -17 -3 -4 -10 7 -18 15 -18 17 0 8 8 3 21 -13z"/>
<path d="M3345 6939 c-4 -6 -13 -8 -20 -5 -7 2 -18 -1 -24 -7 -7 -7 -11 -8
-11 0 0 6 -13 8 -37 4 -21 -4 -53 -6 -72 -4 -20 2 -38 -2 -43 -9 -5 -8 -8 -9
-8 -2 0 12 -41 11 -59 -1 -6 -3 -11 -1 -11 5 0 6 -5 8 -12 3 -7 -4 -46 -8 -87
-10 -40 -1 -76 -4 -78 -7 -3 -3 -14 -1 -24 4 -12 7 -20 6 -25 -1 -4 -8 -9 -7
-15 2 -7 11 -9 11 -9 1 0 -8 -9 -11 -25 -8 -13 3 -27 2 -29 -2 -2 -4 -52 -7
-110 -7 -58 0 -106 -4 -106 -8 0 -4 -9 -3 -20 3 -11 6 -20 7 -20 3 0 -4 -30
-8 -67 -8 -38 0 -76 -3 -85 -7 -10 -5 -18 -3 -21 5 -4 9 -6 8 -6 -2 -1 -11 -4
-11 -16 -1 -8 7 -15 8 -15 3 0 -5 -15 -9 -32 -10 -18 -1 -91 -4 -163 -6 -71
-3 -131 -6 -132 -7 -3 -2 -29 -6 -57 -9 -23 -2 -78 -62 -72 -78 3 -8 2 -11 -4
-8 -5 3 -18 -15 -29 -40 -11 -25 -24 -45 -30 -45 -6 0 -8 -7 -5 -15 4 -8 1
-15 -6 -15 -7 0 -10 -7 -6 -16 3 -8 2 -12 -3 -9 -10 5 -27 -33 -23 -49 2 -5
-4 -6 -12 -3 -9 4 -15 3 -14 -1 3 -14 -14 -62 -22 -62 -8 0 -23 -38 -21 -52 1
-5 -6 -8 -15 -8 -10 0 -14 -6 -10 -15 3 -8 -2 -19 -11 -23 -10 -6 -14 -16 -10
-26 4 -9 2 -15 -6 -13 -7 1 -11 -4 -9 -10 1 -7 -3 -13 -10 -13 -6 0 -9 -3 -5
-6 3 -4 -1 -13 -9 -21 -8 -8 -11 -19 -8 -25 4 -7 2 -8 -4 -4 -11 6 -17 -6 -13
-27 1 -4 -6 -10 -14 -13 -8 -3 -12 -10 -9 -15 3 -5 -1 -12 -10 -15 -8 -3 -13
-14 -11 -25 2 -11 0 -17 -6 -14 -5 4 -9 -1 -9 -9 0 -9 -5 -16 -11 -16 -5 0 -8
-4 -4 -9 3 -6 -3 -14 -12 -20 -14 -8 -15 -11 -3 -11 12 0 11 -3 -2 -11 -10 -5
-18 -17 -18 -24 0 -8 -5 -15 -11 -15 -5 0 -7 -4 -4 -10 3 -5 1 -10 -4 -10 -6
0 -11 -9 -11 -19 0 -10 -7 -21 -15 -25 -8 -3 -15 -9 -14 -13 3 -20 -2 -34 -11
-28 -6 4 -10 3 -9 -2 3 -17 -1 -32 -13 -45 -24 -26 -39 -59 -32 -70 4 -7 3 -8
-4 -4 -7 4 -12 1 -12 -8 0 -9 -5 -16 -12 -16 -6 0 -9 -3 -5 -6 3 -4 -1 -13 -9
-21 -8 -8 -12 -19 -9 -24 4 -5 -1 -9 -9 -9 -10 0 -13 -6 -10 -15 4 -8 1 -15
-5 -15 -6 0 -11 -9 -11 -19 0 -11 -10 -27 -22 -36 -13 -8 -22 -18 -20 -20 6
-13 1 -35 -8 -30 -5 3 -10 -2 -10 -12 -1 -21 -24 -55 -33 -47 -3 3 -4 -6 -3
-20 2 -14 -2 -24 -8 -23 -6 1 -10 -4 -8 -10 1 -7 -3 -13 -9 -13 -6 0 -9 -7 -5
-15 3 -8 1 -15 -4 -15 -5 0 -17 -16 -26 -35 -9 -19 -21 -35 -26 -35 -5 0 -7
-4 -3 -9 3 -5 0 -13 -6 -16 -5 -4 -8 -13 -5 -21 3 -8 0 -13 -6 -11 -7 1 -12
-5 -13 -13 -1 -8 -5 -14 -11 -13 -5 1 -11 -8 -11 -19 -1 -12 -8 -25 -15 -29
-7 -5 -8 -9 -3 -9 6 0 2 -5 -8 -11 -9 -6 -15 -14 -12 -20 4 -5 1 -9 -5 -9 -6
0 -9 -4 -5 -9 3 -5 -1 -16 -9 -23 -8 -8 -23 -36 -35 -61 -12 -26 -26 -47 -32
-47 -6 0 -8 -4 -4 -10 3 -5 -3 -18 -13 -28 -10 -10 -18 -26 -16 -35 1 -10 -2
-15 -7 -12 -4 3 -11 -6 -15 -20 -3 -14 -10 -25 -14 -25 -8 0 -23 -38 -21 -52
1 -5 -3 -8 -8 -8 -12 0 -51 -76 -44 -84 4 -3 1 -6 -5 -6 -6 0 -14 -9 -17 -20
-4 -11 -11 -18 -16 -15 -5 3 -6 -1 -3 -9 3 -9 1 -16 -5 -16 -6 0 -8 -7 -4 -17
4 -11 3 -14 -5 -9 -7 4 -13 2 -13 -3 -1 -6 -2 -16 -3 -21 0 -6 -7 -15 -15 -19
-8 -5 -10 -14 -6 -21 5 -8 4 -11 -2 -7 -11 7 -26 -19 -19 -32 3 -4 -6 -15 -20
-25 -13 -11 -24 -24 -24 -30 0 -18 -24 -66 -33 -66 -5 0 -5 -4 -2 -10 3 -5 1
-10 -4 -10 -6 0 -11 -7 -11 -15 0 -8 -5 -15 -11 -15 -5 0 -7 -4 -4 -10 3 -5 1
-10 -4 -10 -6 0 -10 -3 -9 -7 1 -5 -4 -19 -12 -33 -17 -31 -22 -70 -9 -70 6 0
7 -5 3 -12 -4 -6 -3 -8 4 -4 6 3 17 -1 25 -9 9 -8 23 -15 31 -15 9 0 16 -4 16
-8 0 -4 9 -9 20 -10 43 -4 50 -6 50 -13 0 -4 8 -8 18 -8 41 -1 79 -8 92 -16 9
-5 15 -4 18 4 3 9 7 9 18 0 7 -6 20 -9 28 -6 8 3 17 1 20 -6 3 -8 5 -8 5 2 1
11 4 11 16 1 8 -7 15 -8 15 -2 0 5 15 10 32 10 18 0 49 4 68 7 19 4 40 8 45 9
6 1 16 5 23 9 6 5 16 6 21 3 5 -4 11 -1 13 4 2 6 13 12 26 13 12 0 22 5 22 10
0 4 5 5 10 2 6 -3 24 4 41 15 16 12 32 20 35 17 3 -3 17 6 31 19 14 13 32 24
39 24 7 0 20 9 28 21 8 12 19 18 25 14 6 -3 11 1 11 10 0 9 5 13 10 10 6 -3
10 1 10 9 0 9 7 16 16 16 8 0 13 4 9 9 -3 5 4 12 15 16 11 4 17 11 14 17 -5 7
-1 9 9 5 12 -4 15 -1 12 15 -3 11 -2 18 2 15 7 -7 23 9 45 48 10 17 22 29 27
28 6 -2 8 4 5 12 -4 8 -1 15 7 15 7 0 10 3 6 6 -3 4 1 13 9 21 8 8 12 19 9 24
-4 5 2 9 12 9 14 0 15 2 5 9 -11 7 -11 9 2 14 9 4 15 12 14 19 -2 7 3 12 10
10 8 -1 11 2 7 7 -5 9 10 46 25 61 3 3 12 14 20 24 13 18 13 19 0 11 -8 -4 -5
3 7 16 12 13 23 29 25 34 2 6 6 9 10 8 3 -1 5 5 4 14 -3 19 15 43 26 36 4 -2
5 3 2 12 -4 9 2 23 15 35 12 10 22 21 21 25 -2 10 25 65 32 65 5 0 8 8 8 18 0
10 10 29 23 42 12 14 21 26 20 27 -8 8 -2 23 7 18 6 -3 10 2 10 13 0 10 9 28
20 40 12 12 16 22 9 22 -7 0 -2 8 9 19 12 10 19 21 15 24 -3 4 2 9 11 13 9 3
13 10 10 15 -3 5 2 16 10 25 9 8 16 22 16 30 0 8 5 14 11 14 6 0 8 7 5 16 -4
11 -2 15 8 11 10 -4 13 -1 9 9 -3 7 0 14 7 14 6 0 9 4 6 9 -3 5 3 19 13 32 10
13 26 43 36 66 10 23 23 39 28 36 6 -4 8 0 4 10 -3 10 -2 17 3 17 5 0 12 11
16 25 3 14 11 22 17 18 6 -4 8 0 4 10 -3 10 -2 17 3 17 6 0 10 7 10 15 0 8 5
15 10 15 6 0 10 9 10 20 0 11 7 23 15 26 8 4 12 10 9 15 -3 5 0 9 7 9 7 0 10
3 6 6 -3 4 1 13 9 21 8 8 12 19 8 24 -3 5 2 12 11 15 9 4 14 13 11 20 -3 8 1
14 10 14 8 0 13 4 9 9 -3 5 1 16 9 24 8 8 12 17 9 21 -4 3 -1 6 6 6 7 0 9 5 6
10 -3 6 1 13 9 16 9 3 14 10 11 14 -3 4 3 18 13 31 10 13 22 32 25 42 4 10 11
16 16 13 5 -3 11 1 14 8 3 8 14 15 24 15 10 -1 45 2 78 5 33 4 112 9 175 11
191 8 259 13 269 19 5 4 13 2 16 -4 4 -6 12 -7 18 -3 7 5 47 8 89 8 43 0 78 2
78 5 0 3 33 5 73 5 39 0 75 5 79 10 5 6 8 6 8 -2 0 -7 9 -10 23 -7 35 6 194
16 277 17 42 0 78 5 82 11 5 7 8 6 8 -3 0 -9 4 -10 13 -4 6 5 59 9 117 8 59 0
108 4 112 10 5 6 8 5 8 -3 0 -8 5 -10 13 -5 6 4 35 8 64 9 28 1 56 5 62 8 6 4
11 2 11 -4 0 -6 5 -8 13 -3 17 11 57 12 57 1 0 -5 6 -6 13 -1 22 14 49 14 41
1 -6 -10 -5 -10 7 -1 13 11 36 14 137 22 7 1 10 6 7 11 -3 6 -1 10 5 10 6 0 8
5 5 10 -3 6 -1 10 5 10 6 0 8 5 3 13 -4 6 -8 23 -9 37 -1 14 -2 25 -3 25 -3 0
-10 31 -14 60 -2 11 -9 30 -15 41 -6 12 -8 24 -5 28 3 3 1 6 -5 6 -7 0 -12 9
-12 20 0 11 -5 20 -12 20 -6 0 -8 3 -5 7 4 3 -1 15 -10 26 -13 15 -14 18 -3
13 8 -4 4 1 -9 12 -13 11 -21 24 -17 31 4 6 1 11 -9 11 -9 0 -13 5 -10 10 3 6
1 10 -5 10 -6 0 -8 5 -5 10 3 6 1 10 -5 10 -6 0 -8 5 -5 10 4 6 2 9 -4 8 -6
-2 -17 8 -24 22 -7 13 -24 30 -37 37 -14 7 -22 13 -18 13 4 0 -3 10 -15 23
-12 12 -25 18 -28 13 -4 -5 -10 0 -13 10 -3 11 -19 25 -36 32 -17 8 -28 18
-25 23 4 5 0 6 -8 3 -8 -3 -20 2 -27 11 -7 8 -19 15 -27 15 -8 0 -11 5 -7 12
4 7 3 8 -4 4 -6 -4 -22 -1 -34 6 -13 6 -29 13 -37 14 -8 2 -18 9 -22 16 -7 10
-9 10 -9 -2 0 -11 -2 -12 -8 -2 -9 13 -33 20 -87 27 -16 2 -46 7 -65 10 -64
12 -110 13 -103 2 3 -6 1 -7 -6 -3 -16 10 -132 13 -138 4 -2 -5 -13 -4 -23 2
-13 7 -21 7 -25 -1z"/>
<path d="M9078 5785 c-3 -3 -71 -14 -105 -17 -7 -1 -13 -5 -13 -9 0 -4 -9 -6
-20 -4 -11 2 -20 -1 -20 -7 0 -6 -7 -5 -17 3 -11 10 -14 10 -9 2 4 -8 1 -13
-8 -13 -9 0 -16 -5 -16 -11 0 -5 -4 -8 -9 -5 -10 6 -94 -33 -99 -46 -2 -5 -9
-8 -17 -8 -7 0 -18 -7 -25 -15 -7 -8 -16 -12 -21 -9 -5 3 -9 -2 -9 -10 0 -9
-6 -15 -12 -13 -7 1 -12 -4 -10 -11 1 -8 -2 -11 -7 -8 -5 4 -14 -1 -19 -10 -5
-9 -12 -15 -15 -15 -4 0 -23 -15 -43 -34 -20 -19 -33 -35 -29 -35 3 0 -6 -11
-20 -24 -16 -15 -24 -30 -19 -37 4 -8 3 -9 -5 -5 -6 4 -14 0 -18 -11 -4 -10
-13 -24 -20 -31 -7 -8 -11 -17 -8 -22 3 -4 -2 -11 -10 -14 -8 -3 -15 -9 -14
-13 3 -19 -2 -36 -8 -30 -6 7 -34 -48 -30 -59 1 -3 -6 -10 -15 -15 -9 -5 -19
-23 -23 -39 -4 -17 -11 -27 -16 -24 -6 3 -9 -2 -7 -12 2 -11 -2 -18 -9 -17 -7
2 -10 -4 -7 -12 4 -8 -1 -17 -10 -21 -9 -3 -13 -10 -10 -16 3 -5 -2 -16 -12
-23 -11 -8 -15 -15 -11 -15 5 0 -1 -13 -12 -29 -12 -16 -21 -33 -21 -39 0 -5
-9 -19 -20 -32 -12 -13 -18 -30 -15 -38 3 -9 0 -12 -9 -9 -11 4 -13 1 -9 -10
5 -12 3 -14 -8 -8 -8 4 -11 5 -7 0 10 -10 -19 -65 -35 -65 -8 0 -7 -4 3 -10
10 -6 11 -10 3 -10 -7 0 -13 -5 -13 -11 0 -6 -10 -20 -22 -31 -13 -11 -16 -16
-8 -12 13 7 13 5 1 -9 -7 -9 -10 -17 -6 -17 4 0 -3 -9 -16 -21 -13 -11 -18
-17 -10 -13 9 5 7 -2 -5 -18 -10 -14 -23 -23 -29 -20 -5 3 -4 -1 3 -10 11 -14
10 -18 -7 -30 -12 -8 -18 -18 -14 -21 3 -4 1 -7 -5 -7 -7 0 -9 -7 -5 -17 3
-10 2 -15 -2 -11 -9 8 -49 -51 -41 -59 3 -3 0 -11 -7 -19 -22 -25 -33 -39 -38
-49 -2 -5 -8 -9 -12 -7 -5 1 -6 -2 -2 -8 6 -10 -23 -72 -37 -78 -5 -2 -8 -12
-8 -23 0 -10 -4 -19 -9 -19 -5 0 -13 -9 -16 -20 -4 -12 -11 -17 -18 -13 -7 4
-6 0 2 -10 11 -14 11 -18 -3 -23 -9 -3 -16 -11 -16 -16 0 -6 -8 -17 -17 -25
-10 -8 -12 -12 -5 -8 6 3 12 1 12 -4 0 -6 -5 -11 -10 -11 -10 0 -35 -48 -32
-62 1 -5 -2 -8 -7 -8 -5 0 -16 -12 -26 -26 -9 -15 -12 -23 -6 -20 12 8 -50
-89 -79 -123 -15 -16 -32 -24 -58 -25 -20 -1 -41 -7 -45 -14 -6 -8 -13 -10
-20 -4 -14 11 -46 10 -66 -2 -8 -5 -16 -4 -21 4 -4 7 -10 8 -13 3 -4 -5 -47
-9 -97 -9 -49 1 -90 -1 -90 -4 0 -3 -21 -5 -48 -4 -26 0 -53 -4 -59 -9 -7 -5
-13 -5 -13 -1 0 8 -53 8 -140 0 -19 -2 -41 2 -49 8 -11 8 -13 8 -7 -1 8 -14 7
-14 -99 -17 -33 -1 -66 -5 -72 -9 -7 -5 -13 -4 -13 0 0 5 -9 9 -20 10 -11 1
-20 -1 -20 -5 0 -4 -9 -8 -20 -8 -11 0 -20 4 -20 9 0 4 -6 5 -12 0 -7 -4 -35
-8 -63 -9 -27 -2 -52 -3 -55 -4 -3 -1 -41 -2 -85 -2 -44 0 -84 -3 -90 -6 -16
-10 -45 -9 -45 0 0 5 -6 6 -12 1 -7 -4 -47 -8 -88 -9 -41 -2 -118 -5 -170 -9
-52 -3 -125 -7 -162 -8 -36 -1 -70 -5 -74 -9 -4 -4 -12 -4 -18 -1 -15 10 -46
11 -46 2 0 -4 -13 -5 -28 -3 -19 3 -34 -1 -45 -14 -21 -23 -30 -62 -15 -62 7
0 6 -6 -2 -15 -10 -12 -10 -15 0 -15 7 0 10 -7 6 -15 -3 -8 -1 -15 4 -15 5 0
7 -8 5 -18 -1 -10 5 -34 15 -55 10 -20 14 -34 8 -31 -5 3 -4 -3 4 -15 7 -12
16 -21 20 -21 5 0 8 -5 8 -11 0 -5 -6 -7 -12 -4 -7 4 -3 -2 10 -13 12 -11 22
-27 22 -36 0 -9 5 -16 11 -16 5 0 8 -4 4 -9 -3 -5 1 -15 8 -23 8 -7 19 -24 26
-36 7 -13 17 -20 24 -15 7 4 6 0 -2 -10 -12 -15 -12 -17 2 -11 12 4 18 -2 23
-20 3 -14 9 -24 13 -22 9 5 31 -21 24 -28 -4 -3 -1 -6 6 -6 7 0 19 -7 28 -15
8 -8 20 -12 26 -8 7 3 9 3 5 -2 -8 -9 15 -35 31 -35 6 0 11 -3 11 -7 0 -9 59
-45 80 -49 8 -2 16 -8 18 -13 2 -6 12 -11 23 -11 10 0 19 -5 19 -11 0 -5 4 -8
9 -4 5 3 13 0 16 -6 4 -5 13 -8 21 -5 8 3 14 2 14 -2 0 -4 10 -8 22 -9 11 -1
24 -6 27 -10 6 -8 16 -10 91 -17 25 -2 54 -8 64 -12 12 -5 17 -4 13 3 -3 5 0
10 8 10 8 0 15 -3 15 -7 0 -7 145 -3 168 5 6 2 12 0 12 -6 0 -6 6 -7 12 -2 16
9 48 12 170 16 54 2 100 6 104 10 4 3 16 2 27 -4 10 -6 17 -7 14 -2 -4 6 30 9
83 9 50 -1 90 1 90 4 0 3 28 6 63 7 34 1 121 5 192 8 72 4 156 7 187 8 32 1
58 6 58 11 0 5 6 4 13 -3 10 -8 17 -7 25 1 9 9 12 9 12 -1 0 -7 5 -9 12 -5 19
12 68 12 68 0 0 -7 3 -7 8 2 6 8 46 13 123 16 63 3 114 5 114 6 0 1 20 3 45 4
39 2 122 34 95 36 -5 0 1 8 15 16 18 11 19 14 5 9 -15 -4 -13 0 9 20 16 14 26
25 21 25 -4 0 -2 7 5 15 7 8 9 15 4 15 -4 0 0 6 10 13 9 7 18 22 19 34 0 12 3
20 6 18 8 -8 32 35 26 45 -3 6 1 10 10 10 9 0 13 5 10 10 -3 6 -1 10 5 10 6 0
8 5 5 10 -3 6 -1 10 5 10 6 0 8 5 5 10 -3 6 -1 10 5 10 6 0 8 5 5 10 -3 6 -1
10 5 10 6 0 9 4 6 9 -3 5 1 12 10 15 8 3 12 10 9 16 -3 5 -1 10 5 10 6 0 8 5
5 10 -3 6 -1 10 6 10 7 0 10 3 6 6 -3 4 -1 12 6 20 35 39 38 44 25 44 -6 0 -3
7 8 15 10 8 15 15 11 15 -4 0 1 10 13 22 11 12 20 30 20 39 0 10 6 22 14 26 8
4 15 10 15 13 0 17 22 60 31 60 6 0 9 4 5 9 -3 5 1 16 9 24 8 8 12 17 9 21 -4
3 -1 6 5 6 7 0 12 7 12 15 0 8 5 15 11 15 5 0 8 4 4 9 -3 6 1 13 9 18 8 4 15
13 15 18 2 21 13 45 21 45 4 0 11 11 14 25 4 14 11 25 16 25 6 0 10 9 10 20 0
11 5 20 10 20 6 0 10 7 10 15 0 8 5 15 11 15 5 0 7 5 4 10 -3 6 -1 10 4 10 6
0 11 3 10 8 -2 15 14 52 23 52 6 0 7 7 4 16 -3 8 -2 13 3 10 5 -3 15 2 22 11
12 14 12 15 0 9 -8 -6 -7 0 4 18 9 14 20 24 24 21 4 -2 7 6 6 18 -1 12 7 30
17 41 10 11 18 26 18 33 0 7 5 13 11 13 5 0 8 4 5 9 -3 5 1 14 9 21 8 7 12 16
9 21 -3 5 2 9 12 9 14 0 15 2 3 17 -8 9 -9 14 -3 10 7 -4 17 5 24 23 7 16 16
27 21 24 5 -3 6 1 4 8 -3 8 3 23 14 35 11 11 17 23 14 26 -3 3 4 18 16 33 11
15 21 33 21 40 0 8 4 14 10 14 5 0 12 11 16 25 3 14 11 22 17 18 6 -4 8 0 4
10 -3 10 -2 17 3 17 5 0 15 14 24 30 9 19 10 28 3 24 -7 -4 -2 3 11 15 12 12
22 31 22 42 0 14 5 19 14 16 10 -4 12 0 8 15 -3 14 -1 19 6 14 11 -6 17 12 13
37 0 4 6 7 14 7 8 0 14 3 14 8 -3 19 2 33 10 28 5 -4 7 4 3 16 -3 13 -1 19 5
15 10 -6 27 27 24 46 -1 4 6 10 14 13 8 4 15 14 15 23 1 21 25 53 34 44 4 -4
4 0 0 10 -3 10 -1 17 6 17 6 0 8 5 5 10 -3 6 -1 10 4 10 6 0 10 3 10 8 -3 19
2 33 11 27 6 -3 10 3 10 14 0 12 5 21 12 21 6 0 8 3 5 7 -4 3 1 12 11 20 9 8
11 11 3 7 -9 -5 -8 2 5 19 10 15 22 27 27 27 4 0 7 5 7 11 0 5 -6 7 -12 3 -9
-5 -9 -3 1 9 7 9 17 14 22 11 5 -3 6 1 3 9 -3 8 2 21 10 30 8 8 12 17 9 21 -4
3 -1 6 5 6 6 0 16 10 23 21 9 17 8 20 -3 14 -7 -3 -5 0 4 8 10 8 15 17 11 20
-3 4 -1 7 6 7 7 0 9 5 6 10 -3 6 -1 10 4 10 6 0 10 6 9 13 -2 6 3 11 10 9 8
-1 11 2 8 7 -4 5 -1 13 5 16 5 4 8 13 5 20 -2 7 2 16 10 19 9 3 12 10 9 16 -3
5 2 10 12 11 11 0 13 3 5 6 -6 2 -9 10 -5 16 4 7 8 17 8 22 1 14 -36 46 -46
39 -5 -3 -9 -1 -9 4 0 5 -19 15 -42 22 -24 8 -49 18 -57 24 -12 9 -13 8 -6 -4
7 -12 6 -13 -6 -3 -8 6 -27 14 -44 16 -16 3 -40 8 -52 11 -14 3 -23 0 -23 -7
0 -9 -2 -9 -8 -1 -6 10 -125 18 -134 9z"/>
<path d="M2615 5566 c-11 -7 -21 -18 -23 -26 -2 -8 -9 -19 -16 -25 -7 -5 -11
-16 -9 -22 3 -7 -3 -13 -12 -13 -9 0 -14 -4 -10 -9 8 -13 -30 -73 -40 -63 -4
4 -5 -1 -2 -10 4 -10 2 -18 -4 -18 -6 0 -7 -4 -4 -10 3 -5 1 -10 -5 -10 -7 0
-10 -7 -6 -15 3 -9 0 -15 -10 -15 -8 0 -12 -5 -9 -10 3 -6 0 -12 -7 -15 -8 -3
-15 -15 -15 -27 -1 -12 -9 -26 -18 -30 -8 -5 -13 -13 -11 -17 3 -4 -4 -18 -15
-29 -11 -12 -17 -22 -14 -22 4 0 -3 -13 -15 -30 -12 -16 -18 -30 -13 -30 4 0
0 -5 -9 -11 -11 -6 -15 -16 -11 -26 4 -10 2 -14 -4 -10 -6 4 -14 -4 -17 -18
-4 -14 -11 -25 -17 -25 -6 0 -7 -4 -4 -10 3 -5 1 -10 -5 -10 -6 0 -8 -4 -5
-10 3 -5 1 -10 -5 -10 -6 0 -9 -4 -6 -9 3 -5 -1 -12 -10 -15 -8 -3 -12 -10 -9
-16 3 -5 1 -10 -4 -10 -6 0 -10 -6 -9 -12 2 -7 -2 -12 -9 -11 -7 2 -10 -6 -8
-18 3 -14 0 -19 -9 -16 -10 4 -12 0 -9 -14 3 -10 1 -19 -5 -19 -5 0 -13 -11
-16 -25 -4 -16 -11 -23 -18 -19 -6 4 -8 3 -4 -4 3 -6 1 -14 -5 -17 -5 -4 -8
-13 -5 -20 3 -8 -4 -17 -15 -20 -10 -4 -19 -13 -19 -21 0 -17 -21 -56 -35 -66
-6 -5 -6 -8 -1 -8 6 0 1 -7 -10 -16 -10 -8 -12 -12 -4 -8 11 6 10 2 -2 -13
-10 -11 -18 -25 -18 -31 0 -7 -5 -12 -11 -12 -6 0 -8 -7 -5 -16 3 -8 2 -13 -3
-10 -5 3 -16 -12 -25 -34 -9 -22 -21 -40 -27 -40 -6 0 -9 -6 -7 -12 5 -13 -4
-28 -34 -56 -14 -13 -15 -19 -5 -31 9 -12 9 -13 0 -8 -8 5 -15 -1 -19 -18 -3
-14 -10 -25 -15 -25 -5 0 -9 -6 -9 -14 0 -8 -3 -16 -7 -18 -5 -1 -19 -24 -32
-50 -13 -27 -28 -48 -33 -48 -4 0 -8 -3 -7 -7 3 -19 -15 -53 -27 -53 -8 0 -14
-5 -14 -11 0 -5 5 -7 12 -3 6 4 0 -8 -15 -28 -15 -19 -24 -38 -21 -41 4 -4 -1
-9 -10 -13 -9 -3 -14 -10 -11 -14 3 -5 1 -11 -5 -15 -6 -4 -8 -11 -5 -16 5 -8
-7 -13 -26 -11 -4 1 -5 -7 -2 -16 6 -25 -52 -83 -70 -69 -2 1 -11 -4 -20 -12
-14 -11 -17 -11 -17 0 0 11 -2 11 -8 2 -4 -7 -17 -14 -27 -16 -65 -14 -85 -21
-85 -30 0 -6 -3 -8 -6 -4 -8 8 -64 -13 -64 -24 0 -5 -7 -9 -15 -9 -9 0 -18 -7
-21 -15 -4 -8 -10 -13 -14 -10 -4 2 -22 -9 -39 -26 -18 -16 -37 -27 -43 -23
-7 5 -9 2 -5 -8 3 -10 -3 -19 -20 -27 -17 -8 -23 -17 -19 -28 6 -13 4 -14 -9
-3 -9 7 -15 9 -14 4 4 -20 -2 -35 -11 -29 -6 4 -7 -1 -3 -11 4 -12 3 -15 -5
-10 -7 4 -12 1 -12 -8 0 -9 -5 -16 -12 -16 -6 0 -8 -3 -5 -6 4 -4 -3 -15 -14
-25 -11 -9 -20 -20 -19 -24 1 -3 -1 -16 -5 -28 -4 -12 -7 -25 -6 -29 1 -5 -4
-8 -10 -8 -6 0 -9 -7 -6 -15 4 -8 2 -17 -4 -20 -5 -4 -7 -11 -4 -16 4 -5 2 -9
-4 -9 -5 0 -8 -9 -6 -20 2 -11 0 -20 -4 -20 -5 0 -7 -14 -6 -30 1 -17 -1 -32
-5 -35 -4 -2 -4 -25 0 -50 4 -25 3 -45 -2 -45 -5 0 -6 -6 -1 -12 4 -7 9 -24 9
-38 1 -14 3 -25 4 -25 1 0 7 -23 14 -61 1 -7 7 -18 14 -26 6 -8 9 -18 5 -22
-4 -4 -1 -11 7 -16 13 -9 13 -10 0 -10 -12 -1 -11 -3 3 -11 9 -5 17 -17 17
-24 0 -8 5 -15 11 -15 5 0 7 -4 4 -10 -3 -5 3 -17 15 -27 11 -10 20 -23 20
-30 0 -7 5 -13 10 -13 6 0 10 -10 10 -22 0 -19 2 -20 10 -8 6 9 10 10 10 3 0
-14 55 -73 67 -73 5 0 15 -9 23 -19 7 -11 17 -18 22 -15 4 3 8 -3 8 -13 0 -14
2 -15 9 -5 7 11 9 10 15 -3 3 -9 10 -13 16 -10 5 3 10 1 10 -4 0 -6 7 -11 17
-11 9 0 32 -12 51 -27 20 -15 32 -21 28 -15 -4 7 -3 12 3 12 5 0 13 -5 16 -10
4 -6 11 -8 16 -5 5 4 9 1 9 -4 0 -6 3 -10 8 -10 4 1 9 1 12 0 58 -21 277 -14
323 10 10 6 21 8 24 5 3 -3 12 2 20 12 8 9 12 12 8 5 -6 -12 75 25 85 39 3 3
12 8 20 10 8 2 23 12 33 23 10 11 15 13 11 5 -3 -8 18 11 48 43 30 31 58 54
61 51 7 -7 32 45 29 59 -2 6 13 11 30 8 4 0 5 6 2 14 -4 8 -1 15 5 15 6 0 10
3 9 8 -4 15 14 52 23 47 5 -3 6 2 2 11 -5 13 -3 15 7 9 9 -5 11 -4 6 4 -4 6 0
30 9 54 8 23 17 57 18 74 1 18 5 33 8 33 4 0 5 14 3 31 -2 16 0 27 5 24 6 -3
6 7 1 25 -5 16 -6 30 -3 30 3 0 1 6 -4 13 -5 6 -7 23 -3 37 4 17 -1 37 -14 59
-11 19 -15 31 -8 27 10 -6 10 -1 0 21 -6 15 -16 33 -20 40 -5 6 -5 14 0 17 5
3 8 17 7 31 -2 14 1 25 6 25 5 0 9 5 9 11 0 6 16 38 37 72 20 34 36 70 35 79
0 11 4 15 15 11 10 -4 14 -2 10 4 -4 6 2 22 13 35 11 14 16 28 13 32 -3 3 -1
6 6 6 7 0 9 5 6 10 -3 6 1 13 9 16 9 3 14 10 11 14 -3 4 4 19 15 33 11 14 20
33 20 42 0 9 5 13 10 10 6 -3 10 1 10 9 0 8 6 21 13 28 7 7 15 18 16 23 9 27
15 40 22 45 4 3 9 12 11 20 2 8 11 23 21 34 10 11 15 26 13 33 -3 7 0 15 6 19
7 5 8 2 3 -6 -5 -9 -4 -11 3 -6 7 4 12 16 12 27 0 10 4 19 9 19 5 0 12 11 15
25 4 14 11 25 16 25 5 0 6 8 3 17 -5 12 -2 15 9 10 11 -4 15 0 14 11 -2 9 2
22 8 29 22 24 31 39 34 53 2 8 9 18 15 22 7 4 8 8 4 8 -5 0 1 13 12 29 12 16
21 34 21 40 0 6 5 11 12 11 6 0 9 3 5 6 -3 4 1 13 9 21 8 8 12 19 9 24 -4 5
-1 9 4 9 6 0 11 7 11 16 0 9 5 12 12 8 8 -5 9 -2 5 9 -4 10 -2 17 4 17 6 0 9
7 5 15 -3 8 0 14 7 12 7 -1 11 4 10 11 -2 6 2 12 7 12 5 0 9 3 9 8 -3 20 2 33
11 27 6 -4 10 -3 9 2 -4 16 13 62 27 74 11 9 11 15 3 25 -9 11 -8 14 0 14 7 0
10 4 6 9 -3 5 -1 12 5 16 6 4 8 10 5 15 -3 5 -1 11 4 15 5 3 8 15 6 27 -3 12
0 27 6 34 7 8 7 14 -1 19 -7 4 -8 11 -1 19 12 14 7 161 -7 196 -5 14 -8 35 -7
47 1 12 -2 20 -7 17 -4 -3 -8 4 -8 15 0 11 -4 22 -9 26 -6 3 -8 14 -6 25 2 11
-1 19 -8 17 -11 -2 -13 4 -16 38 0 8 -9 15 -18 15 -15 0 -16 2 -3 10 11 7 11
10 2 10 -7 0 -10 5 -7 10 3 6 -1 10 -9 10 -10 0 -13 6 -9 17 4 11 3 14 -5 9
-8 -5 -12 0 -12 14 0 12 -4 18 -10 15 -5 -3 -10 -1 -10 4 0 12 -120 135 -120
124 -1 -5 -7 3 -15 17 -9 15 -14 19 -15 10 0 -10 -3 -11 -8 -4 -12 17 -36 21
-57 10z"/>
<path d="M3685 4339 c-3 -4 -15 -5 -27 -1 -12 3 -19 1 -15 -4 3 -5 -2 -10 -11
-11 -21 -2 -39 -7 -72 -20 -14 -6 -28 -9 -32 -6 -5 2 -8 -1 -8 -7 0 -7 -6 -10
-14 -7 -8 3 -17 -1 -20 -10 -4 -8 -13 -13 -20 -10 -8 3 -17 -1 -20 -10 -4 -9
-9 -13 -12 -10 -3 3 -14 -2 -25 -11 -11 -9 -22 -16 -24 -15 -3 2 -21 -13 -41
-32 -20 -19 -40 -32 -45 -29 -5 3 -8 0 -7 -8 2 -7 -3 -12 -10 -10 -8 1 -11 -2
-7 -8 4 -7 -2 -14 -14 -17 -11 -3 -18 -9 -15 -14 3 -5 -2 -12 -10 -15 -9 -3
-13 -10 -10 -15 3 -5 -2 -12 -10 -15 -8 -3 -18 -14 -21 -25 -4 -11 -11 -16
-18 -13 -7 4 -9 4 -5 -1 4 -4 -4 -22 -17 -40 -14 -17 -25 -39 -25 -48 0 -10
-5 -17 -11 -17 -6 0 -9 -6 -6 -14 3 -8 1 -16 -4 -18 -6 -2 -11 -11 -12 -20 -2
-9 -8 -22 -15 -30 -6 -8 -9 -17 -7 -20 3 -3 0 -18 -6 -34 -11 -28 -19 -76 -21
-122 0 -12 -4 -25 -9 -28 -4 -2 -4 -16 1 -29 7 -17 6 -25 -1 -25 -8 0 -8 -4 0
-14 9 -10 9 -16 1 -21 -8 -5 -8 -10 0 -20 8 -9 8 -15 0 -20 -6 -3 -8 -11 -4
-16 11 -19 11 -59 0 -59 -8 0 -8 -2 0 -8 6 -4 11 -20 12 -37 5 -111 11 -175
17 -186 5 -7 4 -10 -3 -5 -7 4 -10 -1 -9 -14 1 -11 5 -20 9 -20 5 0 4 -8 -1
-18 -6 -11 -6 -24 -1 -32 6 -9 5 -17 -3 -22 -8 -5 -9 -8 -1 -8 8 0 12 -23 13
-62 1 -35 3 -80 5 -100 3 -24 0 -38 -7 -38 -8 0 -8 -3 -2 -8 6 -4 10 -20 10
-37 0 -16 2 -34 5 -40 4 -5 6 -47 6 -92 -1 -46 1 -83 4 -83 3 0 5 -13 5 -30 0
-16 -4 -30 -9 -30 -5 0 -4 -6 1 -12 6 -7 11 -29 11 -48 1 -19 4 -91 8 -160 3
-69 7 -146 8 -172 0 -27 4 -48 8 -48 4 0 3 -11 -2 -25 -7 -17 -6 -25 1 -25 8
0 8 -4 0 -14 -8 -10 -9 -16 -1 -21 7 -4 7 -13 -1 -27 -6 -11 -7 -18 -2 -15 6
4 10 -10 11 -31 1 -20 6 -38 12 -40 5 -2 10 -10 10 -18 0 -9 5 -12 10 -9 6 3
10 -1 10 -9 0 -8 10 -18 22 -22 12 -3 28 -13 36 -21 8 -8 21 -12 29 -9 8 3 11
1 8 -4 -3 -6 1 -10 9 -10 9 0 16 -5 16 -11 0 -5 4 -8 9 -5 5 3 11 -1 15 -9 3
-8 12 -12 20 -9 7 3 20 -3 27 -14 8 -10 22 -18 32 -16 9 1 15 -1 12 -6 -3 -4
6 -11 20 -14 14 -4 25 -11 25 -17 0 -6 5 -7 10 -4 6 3 10 1 10 -4 0 -6 7 -11
15 -11 8 0 15 -4 15 -10 0 -5 9 -10 20 -10 11 0 20 -4 20 -10 0 -5 9 -10 20
-10 11 0 19 -3 19 -8 -3 -19 2 -25 11 -12 8 13 10 13 10 -2 0 -11 5 -15 15
-12 8 4 17 -1 21 -10 3 -9 12 -16 20 -16 18 0 57 -22 67 -38 4 -6 15 -12 24
-12 9 0 22 -8 30 -17 9 -11 11 -12 7 -3 -6 11 -2 10 13 -3 11 -9 25 -17 31
-17 7 0 12 -5 12 -11 0 -5 5 -7 10 -4 6 3 10 1 10 -4 0 -6 9 -11 21 -11 11 0
17 -4 14 -10 -5 -9 8 -14 19 -7 2 1 12 -5 22 -13 11 -9 36 -25 57 -35 20 -11
37 -23 37 -28 0 -4 4 -6 9 -2 5 3 12 1 16 -5 4 -6 11 -7 17 -4 7 4 8 2 4 -4
-4 -7 -1 -12 9 -12 10 0 13 -5 9 -12 -5 -8 0 -7 11 2 17 14 18 13 12 -2 -4
-13 -1 -16 14 -13 10 2 19 0 19 -4 0 -5 14 -14 30 -21 17 -7 30 -16 30 -21 0
-5 7 -9 15 -9 8 0 15 -5 15 -11 0 -5 5 -7 11 -4 6 4 17 -1 25 -11 9 -11 13
-13 9 -7 -4 8 -1 11 9 7 8 -3 12 -12 10 -19 -4 -10 1 -12 15 -8 14 3 23 0 27
-11 3 -9 10 -13 15 -10 5 3 11 -1 14 -8 3 -8 15 -15 28 -15 12 -1 26 -8 32
-16 5 -8 16 -12 23 -10 6 3 12 -2 12 -11 0 -10 6 -13 17 -9 11 4 14 3 9 -5 -5
-8 0 -12 13 -12 12 0 21 -5 21 -11 0 -5 4 -8 9 -4 6 3 14 -3 20 -12 8 -13 10
-14 11 -4 0 11 4 10 13 -4 8 -10 19 -15 26 -11 7 5 10 2 9 -6 -2 -7 3 -12 10
-11 6 2 12 -2 12 -7 0 -6 7 -10 15 -10 8 0 15 -5 15 -12 0 -6 3 -8 6 -5 4 3
18 -2 32 -13 13 -11 28 -17 33 -14 5 3 9 0 9 -6 0 -6 4 -9 9 -6 5 3 11 -1 15
-9 3 -8 15 -15 26 -15 11 0 20 -4 20 -10 0 -5 7 -10 15 -10 8 0 15 -4 15 -10
0 -5 9 -10 20 -10 11 0 20 -4 20 -10 0 -5 7 -10 15 -10 8 0 15 -5 15 -11 0 -5
4 -8 9 -4 6 3 13 -1 18 -9 4 -8 10 -14 13 -14 18 3 50 -16 50 -29 0 -12 3 -13
13 -5 10 9 17 6 27 -8 8 -11 20 -20 27 -20 7 0 13 -6 13 -12 0 -10 2 -10 9 0
7 11 9 11 14 -2 4 -9 13 -16 22 -16 8 0 15 -5 15 -11 0 -5 4 -8 9 -5 5 4 11 3
13 -1 1 -5 33 -23 70 -42 37 -18 69 -40 72 -47 3 -8 12 -11 21 -8 8 3 15 1 15
-4 0 -11 38 -28 53 -24 4 1 7 -6 7 -15 0 -9 3 -13 7 -10 3 4 21 -3 40 -14 18
-11 33 -17 33 -12 0 4 5 0 11 -10 6 -9 14 -15 20 -12 5 4 9 1 9 -4 0 -6 7 -11
15 -11 9 0 18 -7 21 -15 4 -8 10 -13 14 -10 4 3 19 -4 32 -15 19 -14 28 -16
36 -8 9 9 12 9 12 0 0 -6 11 0 25 14 14 14 23 30 20 35 -4 5 -1 9 5 9 6 0 9 4
5 9 -3 5 -1 12 5 16 6 4 8 10 5 15 -3 5 -1 11 5 15 5 3 12 28 16 55 4 28 9 50
13 50 3 0 7 21 9 48 1 26 3 64 5 85 2 20 1 37 -2 37 -3 0 -6 17 -5 37 0 21 -2
43 -5 48 -3 6 -7 21 -9 35 -1 14 -5 32 -9 40 -3 8 -7 26 -9 39 -2 13 -7 27
-11 30 -4 3 -10 15 -11 26 -2 11 -9 23 -15 27 -7 4 -8 8 -3 8 5 0 3 7 -4 15
-7 8 -10 15 -6 15 3 0 -3 9 -14 20 -12 12 -18 25 -15 30 4 6 1 10 -6 10 -7 0
-9 3 -6 6 4 4 -3 15 -15 25 -11 11 -17 19 -12 19 5 0 1 5 -8 11 -10 5 -18 17
-18 24 0 8 -7 15 -15 15 -8 0 -14 6 -12 13 1 6 -3 11 -10 10 -6 -2 -15 6 -18
17 -4 11 -13 20 -21 20 -8 0 -12 5 -9 10 3 6 -1 10 -9 10 -8 0 -21 9 -29 20
-8 11 -17 17 -20 13 -4 -3 -7 -1 -7 6 0 7 -4 9 -10 6 -5 -3 -10 -1 -10 4 0 6
-6 11 -14 11 -7 0 -16 8 -18 18 -3 10 -15 18 -29 19 -13 1 -25 7 -27 13 -2 5
-8 10 -14 10 -5 0 -21 9 -35 20 -14 11 -34 20 -43 20 -10 0 -21 7 -24 16 -3 8
-10 12 -16 9 -5 -3 -10 -1 -10 5 0 6 -4 9 -9 6 -4 -3 -19 3 -31 14 -13 11 -27
20 -31 20 -4 0 -15 7 -23 16 -9 8 -16 11 -16 4 0 -7 -5 -6 -14 2 -8 7 -11 17
-8 22 3 5 0 6 -6 3 -15 -10 -43 3 -35 16 3 5 1 7 -5 3 -6 -3 -13 -2 -17 4 -4
6 -11 8 -16 5 -5 -4 -9 -1 -9 4 0 6 -7 11 -15 11 -7 0 -18 7 -23 16 -5 9 -13
15 -18 15 -17 -1 -44 10 -44 20 0 5 -9 9 -20 9 -11 0 -20 4 -20 9 0 5 -16 15
-34 22 -19 7 -32 17 -29 23 4 5 -1 7 -11 3 -10 -4 -19 -1 -22 8 -4 8 -10 13
-14 10 -5 -3 -12 0 -17 7 -4 7 -15 13 -23 13 -8 0 -14 6 -12 13 1 8 -2 11 -7
8 -5 -4 -17 1 -25 10 -11 10 -16 11 -16 3 0 -7 -8 -2 -19 9 -10 12 -21 19 -25
15 -3 -3 -6 -1 -6 5 0 7 -3 11 -7 10 -11 -2 -47 14 -53 23 -3 4 -11 9 -19 11
-7 2 -24 14 -38 26 -13 13 -30 21 -38 18 -8 -3 -15 -2 -15 3 0 5 -9 11 -21 14
-12 3 -18 10 -14 16 4 7 0 8 -11 4 -13 -5 -15 -3 -9 8 4 8 4 11 0 6 -5 -4 -19
0 -32 8 -13 9 -27 14 -32 11 -5 -3 -16 3 -26 14 -22 24 -91 61 -99 53 -3 -4
-6 1 -6 11 0 10 -5 14 -11 10 -6 -3 -14 -2 -18 3 -3 5 -23 17 -44 27 -20 9
-35 21 -32 26 3 6 0 7 -7 5 -8 -3 -23 3 -35 14 -11 11 -24 17 -28 13 -4 -4
-12 0 -18 9 -7 9 -22 21 -35 28 -12 7 -20 16 -17 22 4 5 3 9 -2 9 -4 0 -9 26
-11 58 -3 75 -9 119 -16 131 -4 5 -2 12 3 15 5 4 6 18 2 34 -10 33 -8 83 3
101 5 7 4 16 -1 20 -6 3 -10 13 -11 21 -4 97 -10 148 -17 160 -5 8 -4 11 3 6
7 -4 10 1 9 14 -1 11 -5 20 -10 20 -5 0 -5 6 1 13 7 8 7 18 2 27 -5 8 -4 22 2
33 6 11 6 22 1 26 -5 3 -9 17 -8 31 0 14 -3 37 -7 53 -4 16 -3 27 4 27 7 0 7
5 1 13 -5 6 -8 40 -7 75 1 40 -3 62 -10 62 -7 0 -7 3 -1 8 14 10 17 32 4 32
-8 0 -8 5 1 15 7 8 9 15 4 15 -5 0 -9 39 -9 88 0 48 -4 90 -10 94 -6 5 -5 8 3
8 7 0 10 4 7 10 -3 5 -8 47 -11 92 -3 46 -7 89 -10 97 -2 7 1 20 7 27 6 8 7
14 2 14 -5 0 -10 21 -10 48 -1 98 -8 172 -16 172 -4 0 -5 6 -1 12 12 18 12 48
1 55 -5 3 -3 9 4 14 11 6 11 11 2 20 -7 7 -8 20 -4 33 5 11 5 30 0 41 -4 11
-8 38 -8 61 -1 55 -20 78 -65 79 -20 1 -39 -2 -41 -6z"/>
<path d="M4921 3005 c-1 -6 -11 -12 -23 -13 -56 -6 -63 -7 -69 -14 -3 -5 -18
-9 -33 -10 -16 -2 -31 -9 -34 -16 -4 -11 -6 -11 -13 0 -7 10 -9 10 -9 1 0 -7
-9 -13 -19 -13 -11 0 -23 -4 -26 -10 -3 -5 -23 -17 -43 -27 -20 -9 -45 -26
-54 -37 -10 -10 -18 -16 -18 -12 0 4 -15 -9 -34 -28 -19 -19 -37 -32 -39 -29
-3 2 -8 -5 -12 -16 -3 -11 -15 -23 -26 -26 -11 -4 -18 -12 -17 -17 2 -6 -5
-22 -17 -34 -20 -21 -31 -89 -13 -78 4 3 8 0 8 -5 0 -6 7 -11 15 -11 8 0 15
-4 15 -10 0 -5 7 -10 16 -10 9 0 12 -5 8 -12 -5 -7 -3 -8 5 -4 7 5 20 1 29 -7
9 -8 34 -22 55 -30 20 -9 37 -21 37 -27 0 -6 4 -9 9 -5 5 3 16 -1 24 -9 8 -8
17 -12 21 -9 3 4 6 1 6 -5 0 -7 7 -12 15 -12 8 0 15 -4 15 -8 0 -4 10 -8 22
-9 12 -1 26 -9 30 -18 5 -8 16 -15 23 -15 8 0 15 -5 15 -11 0 -5 5 -7 10 -4 6
3 10 1 10 -5 0 -6 5 -8 10 -5 6 3 10 1 10 -5 0 -6 5 -8 10 -5 6 3 10 2 10 -4
0 -10 38 -27 53 -23 4 1 6 -1 5 -5 -2 -5 2 -9 7 -11 6 -2 17 -9 25 -16 17 -15
52 -30 63 -28 4 1 7 -6 8 -15 0 -12 2 -13 6 -5 4 10 9 8 21 -5 10 -10 24 -19
32 -21 8 -2 17 -7 20 -11 5 -8 36 -22 58 -27 7 -1 22 -13 33 -26 11 -12 17
-16 13 -8 -4 8 4 5 18 -7 13 -13 32 -23 41 -23 9 0 17 -4 17 -10 0 -5 7 -10
15 -10 8 0 15 -5 15 -11 0 -5 4 -8 9 -5 5 3 14 -1 21 -9 7 -8 18 -15 25 -15 7
0 18 -7 25 -15 7 -8 16 -12 21 -9 5 3 9 0 9 -5 0 -6 7 -11 15 -11 8 0 15 -4
15 -9 0 -5 7 -12 16 -15 10 -4 13 -2 8 6 -4 6 5 3 19 -8 15 -10 27 -23 27 -27
0 -5 5 -5 10 -2 6 3 13 0 16 -9 3 -8 11 -13 19 -10 7 3 15 -2 18 -10 4 -9 13
-16 20 -16 8 0 27 -10 43 -22 16 -13 25 -16 20 -8 -4 8 0 6 8 -4 9 -11 19 -17
22 -13 4 4 15 -3 25 -15 11 -11 19 -17 19 -13 0 4 10 0 22 -11 13 -12 18 -13
13 -4 -8 13 -6 13 8 1 9 -7 15 -16 13 -20 -3 -4 5 -8 16 -8 12 -1 24 -6 27
-11 7 -10 43 -26 54 -24 4 1 7 -5 7 -13 0 -9 6 -12 15 -9 8 4 15 1 15 -6 0 -6
5 -8 10 -5 6 3 10 1 10 -4 0 -6 6 -11 14 -11 8 0 16 -5 18 -10 2 -6 13 -12 25
-13 12 0 19 -5 17 -9 -3 -4 2 -8 10 -8 9 0 16 -4 16 -10 0 -5 6 -10 13 -10 8
0 20 -11 27 -25 7 -13 16 -23 19 -21 3 2 7 -10 7 -27 2 -41 7 -67 20 -92 6
-11 10 -27 9 -35 0 -8 5 -21 12 -28 7 -8 11 -18 8 -23 -4 -5 -1 -9 4 -9 6 0
11 -7 11 -16 0 -9 5 -12 12 -8 7 4 8 3 4 -4 -8 -14 23 -64 35 -56 5 3 6 -2 3
-10 -4 -9 1 -18 10 -22 9 -3 16 -13 16 -21 0 -8 5 -11 10 -8 6 3 10 0 10 -8 0
-8 11 -22 24 -33 14 -10 23 -21 20 -26 -3 -4 2 -5 11 -2 11 5 18 0 22 -14 3
-11 12 -23 20 -27 14 -5 14 -3 2 12 -11 14 -9 14 11 -2 14 -11 33 -29 42 -39
11 -12 18 -14 18 -6 0 7 9 2 21 -11 11 -13 17 -17 13 -9 -7 12 -5 13 8 3 8 -7
18 -10 21 -6 4 3 7 1 7 -6 0 -7 5 -9 10 -6 6 3 10 1 10 -5 0 -6 5 -8 10 -5 6
3 10 2 10 -2 0 -5 15 -9 33 -8 17 0 43 -7 57 -15 21 -13 23 -13 15 0 -7 12 -6
13 6 4 30 -21 242 3 261 30 5 8 8 7 8 -1 0 -13 50 6 50 20 0 5 5 5 10 2 6 -3
10 -1 10 5 0 6 4 9 9 5 5 -3 17 3 27 12 10 10 18 16 18 14 1 -7 58 31 91 61
17 15 34 28 38 28 5 0 6 4 3 9 -3 5 1 11 9 15 8 3 15 13 15 22 0 10 5 14 15
10 8 -3 14 0 12 7 -1 7 4 11 11 9 8 -1 11 2 7 8 -3 5 2 22 13 38 23 33 52 96
52 112 0 6 4 9 9 5 6 -3 8 4 6 15 -2 11 0 20 5 20 5 0 7 7 4 15 -4 8 -2 15 3
15 5 0 9 16 8 36 0 19 2 37 6 39 11 8 7 160 -5 167 -7 5 -7 8 3 8 11 0 11 3 1
15 -6 8 -9 19 -6 24 4 5 1 13 -5 16 -5 4 -8 13 -5 21 3 8 0 14 -6 14 -6 0 -8
3 -5 7 4 3 0 17 -8 30 -9 13 -13 28 -10 33 3 6 1 10 -5 10 -6 0 -8 5 -5 10 3
6 1 10 -4 10 -6 0 -11 9 -11 21 0 11 -4 18 -9 15 -5 -3 -12 1 -15 10 -4 10 -2
13 7 9 6 -4 -3 6 -20 23 -18 16 -30 32 -26 36 3 3 1 6 -5 6 -7 0 -12 7 -12 16
0 8 -4 12 -10 9 -5 -3 -10 1 -10 10 0 9 -4 13 -10 10 -9 -6 -15 8 -11 29 1 5
-5 4 -13 -4 -13 -10 -16 -10 -16 4 0 9 -6 16 -14 16 -8 0 -23 10 -33 23 -18
23 -80 54 -97 49 -5 -2 -6 3 -3 11 4 10 -2 13 -19 11 -13 -1 -24 2 -24 7 0 5
-11 9 -25 9 -14 0 -25 4 -25 9 0 5 -10 7 -22 3 -12 -3 -19 -1 -15 5 4 6 -10 9
-33 8 -23 -1 -40 3 -40 9 0 6 -5 4 -10 -4 -6 -9 -10 -10 -10 -3 0 14 -72 13
-82 -1 -4 -6 -12 -5 -21 3 -11 8 -17 9 -22 1 -3 -6 -11 -8 -16 -5 -5 4 -9 1
-9 -5 0 -6 -4 -9 -9 -6 -5 3 -27 -1 -50 -9 -23 -8 -41 -12 -41 -8 0 3 -7 0
-15 -7 -12 -10 -15 -10 -15 1 0 12 -2 12 -9 0 -6 -9 -11 -10 -15 -3 -4 6 -13
9 -20 6 -7 -3 -20 2 -29 10 -8 8 -17 12 -21 9 -3 -4 -6 -1 -6 6 0 7 -6 11 -13
8 -12 -4 -40 17 -32 25 2 2 -6 5 -18 5 -12 1 -23 7 -25 13 -2 5 -10 10 -19 10
-8 0 -29 11 -47 25 -18 14 -36 22 -39 18 -4 -3 -7 -1 -7 6 0 7 -4 9 -10 6 -5
-3 -10 0 -10 7 0 8 -10 15 -22 15 -13 1 -24 7 -26 13 -2 5 -10 10 -18 10 -8 0
-14 4 -14 9 0 5 -7 12 -16 15 -10 4 -13 2 -8 -7 4 -6 -5 1 -21 16 -16 15 -34
26 -42 23 -7 -3 -13 1 -13 10 0 8 -4 12 -10 9 -5 -3 -10 0 -10 7 0 9 -3 9 -10
-2 -8 -13 -10 -13 -10 2 0 9 -10 18 -22 20 -13 2 -22 9 -21 15 1 6 -7 9 -20 6
-18 -4 -19 -3 -7 6 12 9 10 11 -12 11 -16 0 -28 5 -28 10 0 6 -7 10 -15 10 -8
0 -15 5 -15 10 0 6 -7 10 -15 10 -9 0 -25 9 -37 20 -12 11 -33 20 -47 20 -18
0 -22 3 -13 9 10 6 4 10 -18 14 -20 5 -29 11 -24 18 5 8 3 9 -6 4 -7 -4 -15
-4 -19 1 -3 5 -27 20 -53 33 -27 13 -48 28 -48 33 0 4 -3 7 -7 7 -22 -4 -33 2
-27 14 4 6 4 9 -1 5 -4 -4 -14 -3 -22 3 -7 6 -13 8 -13 4 0 -5 -9 2 -20 15
-12 14 -20 18 -20 10 0 -11 -3 -11 -12 1 -7 8 -22 22 -32 29 -18 13 -19 13
-11 0 8 -13 7 -13 -11 0 -10 8 -22 20 -26 25 -4 6 -8 7 -8 2 0 -4 -13 -1 -29
7 -16 9 -31 12 -35 9 -3 -4 -6 -2 -6 4 0 6 -19 14 -42 18 -24 4 -50 10 -58 12
-8 3 -30 5 -47 6 -18 0 -33 3 -33 7 0 11 -84 7 -92 -5 -5 -6 -8 -5 -8 3 0 9
-5 10 -19 2 -14 -7 -21 -6 -24 3 -3 6 -6 7 -6 2z"/>
<path d="M7107 2219 c7 -7 15 -10 18 -7 3 3 -2 9 -12 12 -14 6 -15 5 -6 -5z"/>
</g>
</svg>
